<svg width="100" height="62" viewBox="0 0 100 62" fill="none" xmlns="http://www.w3.org/2000/svg">
<g id="Frame 5394">
<path id="Arrow 1" d="M49 40.9363C49 41.4886 49.4477 41.9329 50 41.9287C50.5523 41.9245 51 41.4734 51 40.9211L49 40.9363ZM50.7071 21.2878C50.3166 20.9002 49.6834 20.905 49.2929 21.2985L42.9291 27.7107C42.5386 28.1041 42.5386 28.7373 42.9291 29.1249C43.3196 29.5124 43.9528 29.5076 44.3433 29.1142L50 23.4145L55.6567 29.0285C56.0472 29.416 56.6804 29.4112 57.0709 29.0178C57.4614 28.6243 57.4614 27.9911 57.0709 27.6036L50.7071 21.2878ZM51 40.9211V21.9927L49 22.0078V40.9363L51 40.9211Z" fill="#080313"/>
</g>
</svg>
