<svg width="100" height="62" viewBox="0 0 100 62" fill="none" xmlns="http://www.w3.org/2000/svg">
<path d="M51 21.9926C51 21.4403 50.5523 20.996 50 21.0002C49.4477 21.0044 49 21.4555 49 22.0078L51 21.9926ZM49.2929 41.6411C49.6834 42.0287 50.3166 42.0239 50.7071 41.6304L57.0709 35.2182C57.4614 34.8248 57.4614 34.1916 57.0709 33.804C56.6804 33.4165 56.0472 33.4213 55.6567 33.8147L50 39.5144L44.3433 33.9004C43.9528 33.5129 43.3196 33.5177 42.9291 33.9111C42.5386 34.3046 42.5386 34.9378 42.9291 35.3253L49.2929 41.6411ZM49 22.0078V40.9362L51 40.9211V21.9926L49 22.0078Z" fill="#080313"/>
</svg>
