<svg width="56" height="56" viewBox="0 0 56 56" fill="none" xmlns="http://www.w3.org/2000/svg">
<circle cx="28" cy="28" r="28" fill="white"/>
<path d="M18.9924 27C18.4401 27 17.9958 27.4477 18 28C18.0042 28.5523 18.4553 29 19.0076 29L18.9924 27ZM38.6409 28.7071C39.0285 28.3166 39.0237 27.6834 38.6302 27.2929L32.218 20.9291C31.8246 20.5386 31.1914 20.5386 30.8038 20.9291C30.4163 21.3196 30.4211 21.9528 30.8145 22.3433L36.5142 28L30.9002 33.6567C30.5127 34.0472 30.5175 34.6804 30.9109 35.0709C31.3044 35.4614 31.9376 35.4614 32.3252 35.0709L38.6409 28.7071ZM19.0076 29H37.936L37.9209 27H18.9924L19.0076 29Z" fill="#080313"/>
</svg>
