<svg width="65" height="64" viewBox="0 0 65 64" fill="none" xmlns="http://www.w3.org/2000/svg">
<rect width="36.8607" height="53.9937" rx="18.4303" transform="matrix(0.709779 0.704424 -0.709779 0.704424 38.3236 0)" fill="white" fill-opacity="0.5"/>
<path d="M25.2902 38.4331C24.8982 38.8221 24.8982 39.4529 25.2902 39.8419C25.6822 40.231 26.3178 40.231 26.7098 39.8419L25.2902 38.4331ZM40.4388 25.8039C40.4388 25.2537 39.9894 24.8076 39.435 24.8076H30.401C29.8466 24.8076 29.3972 25.2537 29.3972 25.8039C29.3972 26.354 29.8466 26.8001 30.401 26.8001L38.4312 26.8001V34.7697C38.4312 35.3199 38.8807 35.7659 39.435 35.7659C39.9894 35.7659 40.4388 35.3199 40.4388 34.7697V25.8039ZM26.7098 39.8419L40.1448 26.5083L38.7252 25.0994L25.2902 38.4331L26.7098 39.8419Z" fill="white"/>
</svg>
