<svg width="90" height="19" viewBox="0 0 90 19" fill="none" xmlns="http://www.w3.org/2000/svg">
<g id="Julia Pap&#195;&#169;e">
<path id="Vector" d="M85.6044 12.4539C85.696 12.4825 85.7876 12.5025 85.8792 12.514C85.9707 12.5197 86.0623 12.5226 86.1539 12.5226C86.3829 12.5226 86.6033 12.4911 86.8151 12.4281C87.0269 12.3651 87.2244 12.2764 87.4076 12.1619C87.5965 12.0417 87.7625 11.8986 87.9056 11.7326C88.0544 11.5608 88.1747 11.3719 88.2662 11.1659L89.9836 12.8918C89.766 13.2009 89.5142 13.4786 89.2279 13.7247C88.9475 13.9709 88.6412 14.1798 88.3092 14.3516C87.9829 14.5233 87.6366 14.6521 87.2702 14.738C86.9096 14.8296 86.5375 14.8754 86.1539 14.8754C85.5071 14.8754 84.8974 14.7551 84.325 14.5147C83.7583 14.2743 83.2602 13.9394 82.8309 13.5101C82.4073 13.0807 82.0724 12.5712 81.8263 11.9816C81.5801 11.3862 81.457 10.7337 81.457 10.0238C81.457 9.2968 81.5801 8.63275 81.8263 8.03167C82.0724 7.4306 82.4073 6.91825 82.8309 6.49464C83.2602 6.07102 83.7583 5.74186 84.325 5.50716C84.8974 5.27245 85.5071 5.1551 86.1539 5.1551C86.5375 5.1551 86.9124 5.20089 87.2788 5.29249C87.6451 5.38408 87.9915 5.51574 88.3178 5.68748C88.6498 5.85922 88.9589 6.07102 89.2451 6.3229C89.5313 6.56906 89.7832 6.8467 90.0007 7.15582L85.6044 12.4539ZM86.8065 7.61951C86.6977 7.57944 86.589 7.55368 86.4802 7.54223C86.3772 7.53078 86.2684 7.52505 86.1539 7.52505C85.8334 7.52505 85.53 7.58516 85.2437 7.70538C84.9632 7.81987 84.7171 7.98588 84.5053 8.20341C84.2992 8.42094 84.1361 8.68427 84.0159 8.9934C83.8956 9.2968 83.8355 9.64027 83.8355 10.0238C83.8355 10.1097 83.8384 10.207 83.8441 10.3158C83.8556 10.4245 83.8699 10.5362 83.8871 10.6506C83.91 10.7594 83.9357 10.8653 83.9643 10.9684C83.993 11.0714 84.0302 11.163 84.076 11.2431L86.8065 7.61951Z" fill="#080313"/>
<path id="Vector_2" d="M76.5429 12.4539C76.6344 12.4825 76.726 12.5025 76.8176 12.514C76.9092 12.5197 77.0008 12.5225 77.0924 12.5225C77.3214 12.5225 77.5418 12.4911 77.7536 12.4281C77.9654 12.3651 78.1629 12.2764 78.3461 12.1619C78.535 12.0417 78.701 11.8986 78.8441 11.7326C78.9929 11.5608 79.1131 11.3719 79.2047 11.1658L80.922 12.8918C80.7045 13.2009 80.4526 13.4785 80.1664 13.7247C79.8859 13.9709 79.5797 14.1798 79.2477 14.3515C78.9214 14.5233 78.575 14.6521 78.2087 14.7379C77.848 14.8295 77.4759 14.8753 77.0924 14.8753C76.4455 14.8753 75.8359 14.7551 75.2634 14.5147C74.6967 14.2743 74.1987 13.9394 73.7694 13.51C73.3458 13.0807 73.0109 12.5712 72.7647 11.9816C72.5186 11.3862 72.3955 10.7336 72.3955 10.0238C72.3955 9.29677 72.5186 8.63273 72.7647 8.03165C73.0109 7.43058 73.3458 6.91823 73.7694 6.49462C74.1987 6.071 74.6967 5.74184 75.2634 5.50713C75.8359 5.27243 76.4455 5.15508 77.0924 5.15508C77.4759 5.15508 77.8509 5.20087 78.2173 5.29246C78.5836 5.38406 78.9299 5.51572 79.2562 5.68746C79.5883 5.85919 79.8974 6.071 80.1836 6.32288C80.4698 6.56904 80.7217 6.84667 80.9392 7.1558L76.5429 12.4539ZM77.745 7.61949C77.6362 7.57941 77.5275 7.55365 77.4187 7.5422C77.3157 7.53076 77.2069 7.52503 77.0924 7.52503C76.7718 7.52503 76.4684 7.58514 76.1822 7.70535C75.9017 7.81984 75.6556 7.98586 75.4438 8.20339C75.2377 8.42092 75.0745 8.68425 74.9543 8.99337C74.8341 9.29677 74.774 9.64025 74.774 10.0238C74.774 10.1097 74.7769 10.207 74.7826 10.3157C74.794 10.4245 74.8084 10.5361 74.8255 10.6506C74.8484 10.7594 74.8742 10.8653 74.9028 10.9683C74.9314 11.0714 74.9686 11.163 75.0144 11.2431L77.745 7.61949ZM77.0237 4.45096L76.0534 3.17153L78.6037 0.792984L80.0119 2.58762L77.0237 4.45096Z" fill="#080313"/>
<path id="Vector_3" d="M64.7021 18.207H62.3408V5.50715H62.9075L63.8435 6.61485C64.0553 6.41449 64.2871 6.22558 64.539 6.04812C64.7909 5.87066 65.0513 5.71896 65.3204 5.59302C65.5952 5.46135 65.8785 5.35831 66.1705 5.28389C66.4624 5.20947 66.7572 5.17226 67.0549 5.17226C67.7018 5.17226 68.3085 5.28962 68.8753 5.52432C69.4477 5.7533 69.9457 6.0796 70.3693 6.50322C70.7987 6.92683 71.1364 7.43918 71.3826 8.04025C71.6287 8.6356 71.7518 9.29679 71.7518 10.0238C71.7518 10.7794 71.6287 11.4607 71.3826 12.0675C71.1364 12.6685 70.7987 13.1809 70.3693 13.6045C69.9457 14.0224 69.4477 14.343 68.8753 14.5662C68.3085 14.7895 67.7018 14.9011 67.0549 14.9011C66.8488 14.9011 66.6427 14.8782 66.4367 14.8324C66.2363 14.7866 66.0359 14.7265 65.8356 14.6521C65.641 14.5719 65.4463 14.4832 65.2517 14.3859C65.0628 14.2886 64.8796 14.1884 64.7021 14.0854V18.207ZM69.399 10.0238C69.399 9.63454 69.3361 9.28534 69.2101 8.97621C69.0899 8.66709 68.9239 8.40662 68.7121 8.19482C68.5003 7.97728 68.2513 7.81127 67.9651 7.69678C67.6789 7.58229 67.3755 7.52505 67.0549 7.52505C66.7343 7.52505 66.4309 7.58229 66.1447 7.69678C65.8642 7.81127 65.6181 7.97728 65.4063 8.19482C65.1944 8.40662 65.0256 8.66709 64.8996 8.97621C64.7794 9.28534 64.7193 9.63454 64.7193 10.0238C64.7193 10.3959 64.7794 10.7365 64.8996 11.0456C65.0256 11.3548 65.1944 11.6181 65.4063 11.8356C65.6181 12.0531 65.8642 12.222 66.1447 12.3422C66.4309 12.4625 66.7343 12.5226 67.0549 12.5226C67.3755 12.5226 67.6789 12.4625 67.9651 12.3422C68.2513 12.222 68.5003 12.0531 68.7121 11.8356C68.9239 11.6181 69.0899 11.3548 69.2101 11.0456C69.3361 10.7365 69.399 10.3959 69.399 10.0238Z" fill="#080313"/>
<path id="Vector_4" d="M60.7219 14.7036H60.1552L59.245 13.4414C59.0218 13.6417 58.7842 13.8306 58.5323 14.0081C58.2862 14.1798 58.0257 14.3315 57.7509 14.4632C57.4762 14.5891 57.1928 14.6893 56.9009 14.7637C56.6146 14.8381 56.3227 14.8754 56.025 14.8754C55.3782 14.8754 54.7685 14.7666 54.1961 14.5491C53.6293 14.3315 53.1313 14.0167 52.702 13.6045C52.2784 13.1866 51.9435 12.6771 51.6974 12.0761C51.4512 11.475 51.3281 10.7909 51.3281 10.0238C51.3281 9.30824 51.4512 8.65279 51.6974 8.05744C51.9435 7.45636 52.2784 6.94115 52.702 6.51181C53.1313 6.08247 53.6293 5.75045 54.1961 5.51574C54.7685 5.27531 55.3782 5.1551 56.025 5.1551C56.3227 5.1551 56.6175 5.19231 56.9094 5.26673C57.2014 5.34115 57.4848 5.44419 57.7595 5.57585C58.0343 5.70752 58.2948 5.86208 58.5409 6.03954C58.7928 6.217 59.0275 6.40877 59.245 6.61485L60.1552 5.52433H60.7219V14.7036ZM58.3606 10.0238C58.3606 9.70324 58.2976 9.39411 58.1717 9.09644C58.0515 8.79304 57.8855 8.52685 57.6737 8.29787C57.4619 8.06316 57.2128 7.87711 56.9266 7.73972C56.6461 7.59661 56.3456 7.52505 56.025 7.52505C55.7045 7.52505 55.4011 7.57944 55.1148 7.6882C54.8343 7.79697 54.5882 7.95726 54.3764 8.16906C54.1703 8.38087 54.0072 8.6442 53.8869 8.95905C53.7667 9.26817 53.7066 9.62309 53.7066 10.0238C53.7066 10.4245 53.7667 10.7823 53.8869 11.0972C54.0072 11.4063 54.1703 11.6668 54.3764 11.8786C54.5882 12.0904 54.8343 12.2507 55.1148 12.3594C55.4011 12.4682 55.7045 12.5226 56.025 12.5226C56.3456 12.5226 56.6461 12.4539 56.9266 12.3165C57.2128 12.1734 57.4619 11.9873 57.6737 11.7583C57.8855 11.5236 58.0515 11.2574 58.1717 10.9598C58.2976 10.6564 58.3606 10.3444 58.3606 10.0238Z" fill="#080313"/>
<path id="Vector_5" d="M43.4038 4.85453V9.78335H45.8682C46.2059 9.78335 46.5236 9.72038 46.8213 9.59444C47.119 9.46278 47.3794 9.28532 47.6027 9.06206C47.8259 8.83881 48.0005 8.57834 48.1265 8.28066C48.2581 7.97726 48.324 7.65669 48.324 7.31894C48.324 6.98119 48.2581 6.66348 48.1265 6.36581C48.0005 6.06241 47.8259 5.79908 47.6027 5.57582C47.3794 5.35257 47.119 5.17797 46.8213 5.05203C46.5236 4.92036 46.2059 4.85453 45.8682 4.85453H43.4038ZM43.4038 14.7036H40.9395V2.39012H45.8682C46.3204 2.39012 46.7555 2.45023 47.1734 2.57044C47.5912 2.68493 47.9805 2.85095 48.3411 3.06848C48.7075 3.28029 49.0395 3.53789 49.3372 3.84129C49.6406 4.13897 49.8982 4.47099 50.11 4.83736C50.3275 5.20373 50.4935 5.59586 50.608 6.01375C50.7282 6.43164 50.7883 6.8667 50.7883 7.31894C50.7883 7.99444 50.6595 8.63272 50.4019 9.2338C50.1443 9.82915 49.7923 10.3501 49.3458 10.7966C48.8993 11.2431 48.3755 11.5952 47.7744 11.8528C47.1791 12.1104 46.5437 12.2392 45.8682 12.2392H43.4038V14.7036Z" fill="#080313"/>
<path id="Vector_6" d="M34.3196 14.7036H33.7529L32.8427 13.4414C32.6194 13.6417 32.3819 13.8306 32.13 14.0081C31.8838 14.1798 31.6234 14.3315 31.3486 14.4632C31.0738 14.5891 30.7905 14.6893 30.4985 14.7637C30.2123 14.8381 29.9203 14.8754 29.6227 14.8754C28.9758 14.8754 28.3662 14.7666 27.7937 14.5491C27.227 14.3315 26.729 14.0167 26.2996 13.6045C25.876 13.1866 25.5412 12.6771 25.295 12.0761C25.0489 11.475 24.9258 10.7909 24.9258 10.0238C24.9258 9.30824 25.0489 8.65279 25.295 8.05744C25.5412 7.45636 25.876 6.94115 26.2996 6.51181C26.729 6.08247 27.227 5.75045 27.7937 5.51574C28.3662 5.27531 28.9758 5.1551 29.6227 5.1551C29.9203 5.1551 30.2152 5.19231 30.5071 5.26673C30.799 5.34115 31.0824 5.44419 31.3572 5.57585C31.632 5.70752 31.8924 5.86208 32.1386 6.03954C32.3904 6.217 32.6251 6.40877 32.8427 6.61485L33.7529 5.52433H34.3196V14.7036ZM31.9582 10.0238C31.9582 9.70324 31.8953 9.39411 31.7693 9.09644C31.6491 8.79304 31.4831 8.52685 31.2713 8.29787C31.0595 8.06316 30.8105 7.87711 30.5243 7.73972C30.2438 7.59661 29.9432 7.52505 29.6227 7.52505C29.3021 7.52505 28.9987 7.57944 28.7125 7.6882C28.432 7.79697 28.1858 7.95726 27.974 8.16906C27.768 8.38087 27.6048 8.6442 27.4846 8.95905C27.3644 9.26817 27.3043 9.62309 27.3043 10.0238C27.3043 10.4245 27.3644 10.7823 27.4846 11.0972C27.6048 11.4063 27.768 11.6668 27.974 11.8786C28.1858 12.0904 28.432 12.2507 28.7125 12.3594C28.9987 12.4682 29.3021 12.5226 29.6227 12.5226C29.9432 12.5226 30.2438 12.4539 30.5243 12.3165C30.8105 12.1734 31.0595 11.9873 31.2713 11.7583C31.4831 11.5236 31.6491 11.2574 31.7693 10.9598C31.8953 10.6564 31.9582 10.3444 31.9582 10.0238Z" fill="#080313"/>
<path id="Vector_7" d="M24.2011 3.00837C24.2011 3.2259 24.1582 3.42912 24.0723 3.61803C23.9922 3.80694 23.8805 3.97295 23.7374 4.11607C23.5943 4.25345 23.4254 4.36508 23.2308 4.45095C23.0419 4.53109 22.8387 4.57117 22.6212 4.57117C22.4036 4.57117 22.1976 4.53109 22.0029 4.45095C21.814 4.36508 21.648 4.25345 21.5049 4.11607C21.3675 3.97295 21.2559 3.80694 21.17 3.61803C21.0899 3.42912 21.0498 3.2259 21.0498 3.00837C21.0498 2.79656 21.0899 2.5962 21.17 2.40729C21.2559 2.21266 21.3675 2.04665 21.5049 1.90926C21.648 1.76615 21.814 1.65452 22.0029 1.57437C22.1976 1.48851 22.4036 1.44557 22.6212 1.44557C22.8387 1.44557 23.0419 1.48851 23.2308 1.57437C23.4254 1.65452 23.5943 1.76615 23.7374 1.90926C23.8805 2.04665 23.9922 2.21266 24.0723 2.40729C24.1582 2.5962 24.2011 2.79656 24.2011 3.00837ZM23.7975 14.7036H21.4362V5.50713H23.7975V14.7036Z" fill="#080313"/>
<path id="Vector_8" d="M19.8164 14.7036H17.4551V1.84918H19.8164V14.7036Z" fill="#080313"/>
<path id="Vector_9" d="M14.498 13.6302C14.3091 13.802 14.1059 13.9651 13.8884 14.1197C13.6766 14.2685 13.4533 14.4002 13.2186 14.5147C12.9839 14.6235 12.7406 14.7093 12.4887 14.7723C12.2426 14.841 11.9907 14.8753 11.7331 14.8753C11.1664 14.8753 10.634 14.7752 10.136 14.5748C9.63798 14.3744 9.20006 14.0911 8.82225 13.7247C8.45016 13.3526 8.15535 12.9032 7.93782 12.3766C7.72602 11.8442 7.62012 11.2488 7.62012 10.5905V5.50714H9.95569V10.5905C9.95569 10.8996 10.0015 11.1773 10.0931 11.4234C10.1904 11.6639 10.3192 11.8671 10.4795 12.0331C10.6398 12.1991 10.8258 12.3251 11.0376 12.4109C11.2551 12.4968 11.487 12.5397 11.7331 12.5397C11.9735 12.5397 12.1997 12.4853 12.4115 12.3766C12.629 12.2621 12.8179 12.1132 12.9782 11.9301C13.1385 11.7469 13.2644 11.5408 13.356 11.3118C13.4476 11.0771 13.4934 10.8367 13.4934 10.5905V5.50714H15.8375V14.7036H15.2708L14.498 13.6302Z" fill="#080313"/>
<path id="Vector_10" d="M6.15663 9.78335C6.15663 10.4646 6.02783 11.1057 5.77023 11.7068C5.51263 12.3021 5.16058 12.8231 4.71407 13.2696C4.27329 13.7104 3.75237 14.0596 3.1513 14.3172C2.55596 14.5748 1.91768 14.7036 1.23648 14.7036C0.824318 14.7036 0.412159 14.6521 0 14.549V11.9043C0.183182 12.0131 0.380675 12.0961 0.592479 12.1533C0.804283 12.2106 1.01895 12.2392 1.23648 12.2392C1.57422 12.2392 1.89192 12.1762 2.1896 12.0503C2.49299 11.9186 2.75631 11.7411 2.97957 11.5179C3.20282 11.2946 3.37742 11.0342 3.50335 10.7365C3.63501 10.4388 3.70085 10.1211 3.70085 9.78335V2.39012H6.15663V9.78335Z" fill="#080313"/>
</g>
</svg>
