<svg width="21" height="16" viewBox="0 0 21 16" fill="none" xmlns="http://www.w3.org/2000/svg">
<path d="M0.992426 7.00003C0.440142 7.00003 -0.00418276 7.44773 0 8C0.00418276 8.55227 0.455289 8.99997 1.00757 8.99997L0.992426 7.00003ZM20.6409 8.70709C21.0285 8.31657 21.0237 7.68343 20.6302 7.29291L14.218 0.929135C13.8246 0.538622 13.1914 0.538622 12.8038 0.929135C12.4163 1.31965 12.4211 1.95279 12.8145 2.34331L18.5142 8L12.9002 13.6567C12.5127 14.0472 12.5175 14.6804 12.9109 15.0709C13.3044 15.4614 13.9376 15.4614 14.3252 15.0709L20.6409 8.70709ZM1 8L1.00757 8.99997H19.936L19.9285 8L19.9209 7.00003H0.992426L1 8Z" fill="#080313"/>
</svg>
