<svg width="16" height="16" viewBox="0 0 16 16" fill="none" xmlns="http://www.w3.org/2000/svg">
<path d="M0.290221 13.6293C-0.10178 14.0183 -0.10178 14.6491 0.290221 15.0381C0.682221 15.4271 1.31778 15.4271 1.70978 15.0381L0.290221 13.6293ZM15.4388 1.00002C15.4388 0.44983 14.9894 0.00381317 14.435 0.00381317L5.40101 0.00381317C4.84664 0.00381317 4.39723 0.44983 4.39723 1.00002C4.39723 1.55021 4.84664 1.99623 5.40101 1.99623L13.4312 1.99623V9.96587C13.4312 10.5161 13.8807 10.9621 14.435 10.9621C14.9894 10.9621 15.4388 10.5161 15.4388 9.96587L15.4388 1.00002ZM1 14.3337L1.70978 15.0381L15.1448 1.70444L14.435 1.00002L13.7252 0.295595L0.290221 13.6293L1 14.3337Z" fill="white"/>
</svg>
